<svg width="824" height="643" viewBox="0 0 824 643" fill="none" xmlns="http://www.w3.org/2000/svg">
<g clip-path="url(#clip0_4120_328)">
<path fill-rule="evenodd" clip-rule="evenodd" d="M20.4042 1.93365C-1.0082 8.03121 -5.82951 29.3727 7.18098 49.2961C16.8591 64.0791 26.6435 79.8548 36.5343 94.3897L154.728 275.083C174.119 305.145 194.433 334.818 214.179 365.589L243.603 410.612C261.151 435.888 285.152 474.105 302.487 500.622L361.867 591.234C373.85 609.811 379.026 620.517 397.247 631.4C414.406 641.681 456.486 647.318 476.516 636.47C482.117 633.421 482.897 632.322 487.045 628.103C494.667 620.269 496.12 614.88 499.063 602.401C511.683 549.083 524.339 441.49 536.676 388.136C538.271 381.259 545.929 375.019 552.948 374.629C594.284 372.396 646.113 369.489 687.271 367.362C736.867 364.809 774.445 368.673 786.109 321.205C794.9 285.293 807.521 254.663 816.136 219.035C820.177 202.267 828.898 181.493 820.425 165.15C811.385 147.672 795.007 147.247 772.07 148.807C730.167 151.643 688.264 153.486 646.361 156.252C596.872 159.513 571.879 154.337 560.393 202.125C553.515 230.805 544.121 318.333 522.531 337.902C506.011 352.862 471.163 348.112 446.382 322.233C435.605 310.995 293.27 88.5757 268.242 51.4941C255.479 32.5633 251.402 23.3106 233.5 11.789C213.576 -1.00878 194.787 0.515614 168.802 0.515614C143.986 0.480163 119.17 0.515614 94.3548 0.515614C79.2881 0.515614 31.4294 -1.29237 20.3687 1.86276L20.4042 1.93365Z" fill="#03444A"/>
</g>
<defs>
<clipPath id="clip0_4120_328">
<rect width="824" height="643" fill="white"/>
</clipPath>
</defs>
</svg>
