<svg width="1468" height="353" viewBox="0 0 1468 353" fill="none" xmlns="http://www.w3.org/2000/svg">
<g clip-path="url(#clip0_4120_315)">
<path fill-rule="evenodd" clip-rule="evenodd" d="M11.1864 1.07202C-0.545423 4.4302 -3.20582 16.1184 3.94668 27.0216C9.22382 35.1336 14.6318 43.7689 20.0398 51.75L84.8048 150.751C95.4463 167.237 106.568 183.461 117.384 200.339L133.52 225.024C143.159 238.892 156.286 259.827 165.794 274.35L198.329 324.025C204.914 334.186 207.749 340.074 217.693 346.049C227.07 351.675 250.184 354.772 261.131 348.84C264.184 347.183 264.62 346.572 266.888 344.261C271.075 339.987 271.86 337.021 273.474 330.174C280.364 300.953 287.342 241.989 294.102 212.768C294.975 209.018 299.162 205.572 302.999 205.354C325.635 204.133 354.07 202.519 376.618 201.385C403.789 199.99 424.374 202.127 430.785 176.09C435.626 156.421 442.517 139.63 447.227 120.091C449.451 110.889 454.205 99.5061 449.582 90.5654C444.61 81.0142 435.626 80.7526 423.109 81.6248C400.125 83.1949 377.185 84.1979 354.244 85.6808C327.117 87.4689 313.423 84.6341 307.143 110.802C303.392 126.502 298.202 174.476 286.383 185.205C277.355 193.404 258.209 190.788 244.646 176.613C238.758 170.464 160.735 48.5663 147.04 28.2428C140.062 17.8629 137.794 12.8038 128.025 6.48C117.122 -0.541661 106.786 0.330603 92.5678 0.28699C78.9606 0.28699 65.3535 0.28699 51.7899 0.28699C43.5471 0.28699 17.2922 -0.716112 11.23 1.0284L11.1864 1.07202Z" fill="#58D1E2"/>
<path d="M609.521 231.091H585.59C576.344 231.091 568.408 227.982 561.781 221.764C555.154 215.546 551.472 207.691 550.736 198.201L542.881 65.5348H584.976L589.149 182.246L642.779 65.5348H689.292L609.521 231.091ZM668.92 231.091L699.846 105.666H740.346L709.91 231.091H668.92ZM702.424 94.866L710.033 65.4121H750.409L742.8 94.866H702.424ZM728.319 231.091L734.087 207.037L802.567 135.856H751.391L758.509 106.28H864.175L857.302 134.506L790.049 201.269H841.225L833.985 231.091H728.319ZM925.046 103.457C923.901 103.457 922.919 103.784 922.101 104.439C921.283 105.175 920.71 105.993 920.383 106.893C920.383 106.893 920.178 107.63 919.769 109.102C919.442 110.575 919.033 112.293 918.542 114.257C918.133 116.22 917.724 118.061 917.315 119.779C916.906 121.416 916.619 122.561 916.456 123.216C916.21 124.77 916.538 126.12 917.438 127.266C918.337 128.411 919.524 128.984 920.997 128.984C921.569 128.984 924.556 128.984 929.955 128.984C935.437 128.984 941.901 128.984 949.346 128.984C956.791 128.984 963.582 128.984 969.718 128.984C975.855 128.984 979.618 128.984 981.009 128.984C992.054 128.984 1000.89 133.32 1007.52 141.993C1014.14 150.583 1016.19 160.483 1013.65 171.692C1013.65 171.774 1013.61 171.897 1013.53 172.06C1013.53 172.224 1013.16 173.737 1012.43 176.601C1011.77 179.383 1010.95 182.696 1009.97 186.542C1009.07 190.387 1008.21 193.946 1007.39 197.219C1006.58 200.491 1006.09 202.619 1005.92 203.6C1003.71 211.7 999.418 218.327 993.036 223.482C986.654 228.555 979.209 231.091 970.7 231.091C970.618 231.091 970.496 231.091 970.332 231.091C969.186 231.091 963.091 231.091 952.046 231.091C941.082 231.091 928.155 231.091 913.265 231.091C898.374 231.091 884.834 231.091 872.643 231.091C860.534 231.091 853.334 231.091 851.043 231.091C851.043 231.091 851.452 229.332 852.271 225.814C853.089 222.296 854.071 218.205 855.216 213.541C856.361 208.796 857.425 204.46 858.407 200.532C859.307 196.523 859.88 193.905 860.125 192.678C861.107 192.678 866.425 192.678 876.079 192.678C885.815 192.678 897.229 192.678 910.319 192.678C923.492 192.678 935.437 192.678 946.155 192.678C956.873 192.678 963.255 192.678 965.3 192.678C967.591 192.678 969.186 191.492 970.086 189.119C970.086 189.119 970.25 188.383 970.577 186.91C970.986 185.437 971.396 183.719 971.805 181.755C972.295 179.792 972.745 177.992 973.155 176.356C973.564 174.637 973.85 173.451 974.014 172.797C974.586 171.324 974.423 169.974 973.523 168.747C972.623 167.519 971.436 166.906 969.964 166.906C970.046 166.906 970.086 166.906 970.086 166.906C970.005 166.906 969.882 166.906 969.718 166.906C969.146 166.906 966.077 166.906 960.514 166.906C955.032 166.906 948.569 166.906 941.123 166.906C933.678 166.906 926.887 166.906 920.751 166.906C914.615 166.906 910.892 166.906 909.583 166.906C898.456 166.906 889.579 162.692 882.952 154.265C876.243 145.838 874.197 135.897 876.816 124.443C876.816 124.361 876.816 124.238 876.816 124.075C876.816 124.075 876.897 123.707 877.061 122.97C877.552 121.089 878.329 117.939 879.393 113.52C880.538 109.102 881.602 104.807 882.584 100.634C883.647 96.3796 884.343 93.5979 884.67 92.2888C891.624 74.4528 903.283 65.5348 919.647 65.5348C919.728 65.5348 919.851 65.5348 920.015 65.5348C921.16 65.5348 927.255 65.5348 938.301 65.5348C949.346 65.5348 962.273 65.5348 977.082 65.5348C991.972 65.5348 1005.51 65.5348 1017.7 65.5348C1029.89 65.5348 1037.14 65.5348 1039.43 65.5348C1039.43 65.5348 1039.02 67.2938 1038.2 70.812C1037.38 74.2482 1036.4 78.2982 1035.25 82.9617C1034.11 87.5434 1033.04 91.7979 1032.06 95.7251C1031.16 99.6523 1030.59 102.23 1030.34 103.457C1029.36 103.457 1024 103.457 1014.27 103.457C1004.53 103.457 993.077 103.457 979.904 103.457C966.814 103.457 954.909 103.457 944.192 103.457C933.474 103.457 927.092 103.457 925.046 103.457ZM1031.33 218.327C1024.94 209.819 1022.94 199.919 1025.31 188.628L1055.63 65.4121H1095.39C1095.39 65.4121 1093.71 71.9983 1090.36 85.1708C1087 98.2614 1085.2 105.257 1084.96 106.157H1114.29L1105.45 142.361H1076.24C1076.24 142.361 1075.71 144.57 1074.65 148.988C1073.58 153.324 1072.36 158.397 1070.97 164.206C1069.58 169.933 1068.31 175.169 1067.16 179.915C1066.02 184.578 1065.32 187.483 1065.08 188.628C1064.83 190.673 1065.32 192.514 1066.55 194.151C1067.78 195.787 1069.49 196.605 1071.7 196.605H1092.32L1083.98 231.091H1057.22C1046.26 231.091 1037.63 226.836 1031.33 218.327ZM1223.27 231.091L1154.42 230.6C1142.56 229.864 1133.56 227.205 1127.42 222.623C1121.37 218.041 1116.78 211.823 1113.67 203.969C1106.88 187.033 1108.36 167.765 1118.09 146.165C1131.18 121.539 1152.54 108.325 1182.15 106.525H1253.34L1223.27 231.091ZM1192.1 195.501L1202.04 153.774H1201.91L1204.98 140.643H1185.96C1175.73 140.806 1167.51 143.547 1161.29 148.865C1155.24 153.692 1151.27 159.583 1149.39 166.538C1143.82 185.601 1149.47 195.255 1166.32 195.501H1192.1ZM1256.16 218.327C1249.78 209.819 1247.77 199.919 1250.14 188.628L1280.46 65.4121H1320.22C1320.22 65.4121 1318.54 71.9983 1315.19 85.1708C1311.83 98.2614 1310.03 105.257 1309.79 106.157H1339.12L1330.28 142.361H1301.08C1301.08 142.361 1300.54 144.57 1299.48 148.988C1298.42 153.324 1297.19 158.397 1295.8 164.206C1294.41 169.933 1293.14 175.169 1291.99 179.915C1290.85 184.578 1290.15 187.483 1289.91 188.628C1289.66 190.673 1290.15 192.514 1291.38 194.151C1292.61 195.787 1294.33 196.605 1296.53 196.605H1317.15L1308.81 231.091H1282.05C1271.09 231.091 1262.46 226.836 1256.16 218.327ZM1325.25 231.091L1333.6 197.219H1397.54C1404.33 197.792 1408.42 195.664 1409.81 190.837C1409.97 185.601 1406.05 183.228 1398.03 183.719H1379.99C1367.55 183.474 1358.06 179.465 1351.52 171.692C1344.89 163.838 1342.84 153.079 1345.38 139.415C1352.58 115.689 1370.74 104.684 1399.87 106.402H1467.86L1459.88 138.925H1393.73C1388.74 138.679 1385.88 140.479 1385.14 144.324C1384.81 147.352 1385.88 149.356 1388.33 150.338C1390.79 151.32 1394.18 151.688 1398.52 151.442L1414.6 150.952C1429.73 151.442 1439.75 155.738 1444.66 163.838C1449.57 171.856 1450.88 182.615 1448.59 196.114C1443.6 220.332 1426.99 231.991 1398.76 231.091H1325.25Z" fill="#58D1E2"/>
</g>
<defs>
<clipPath id="clip0_4120_315">
<rect width="1468" height="353" fill="white"/>
</clipPath>
</defs>
</svg>
